<svg xmlns="http://www.w3.org/2000/svg" viewBox="0 0 10.33 10.04"><defs><style>.cls-1{fill:#c6c6c6;stroke:#333733;stroke-miterlimit:10;}.cls-2{fill:#333733;}</style></defs><g id="Camada_2" data-name="Camada 2"><g id="Layer_1" data-name="Layer 1"><rect class="cls-1" x="0.5" y="0.5" width="9.33" height="9.04" rx="2"/><path class="cls-2" d="M3.71,2.51A.86.86,0,0,1,2,2.51a.86.86,0,0,1,1.72,0"/><path class="cls-2" d="M3.71,7.54a.86.86,0,1,1-.86-.87.87.87,0,0,1,.86.87"/><path class="cls-2" d="M3.71,5a.86.86,0,1,1-.86-.87A.87.87,0,0,1,3.71,5"/><path class="cls-2" d="M8.35,5a.87.87,0,1,1-.87-.87A.87.87,0,0,1,8.35,5"/><path class="cls-2" d="M8.35,7.54a.87.87,0,1,1-.87-.87.87.87,0,0,1,.87.87"/><path class="cls-2" d="M8.35,2.51a.87.87,0,1,1-.87-.86.87.87,0,0,1,.87.86"/></g></g></svg>