<svg xmlns="http://www.w3.org/2000/svg" viewBox="0 0 12.43 10.51"><defs><style>.cls-1{fill:#40a629;}</style></defs><g id="Layer_2" data-name="Layer 2"><g id="Layer_1-2" data-name="Layer 1"><path class="cls-1" d="M.83,5.48H2c1.15,0,1.15,0,1.78-1,.3.72.56,1.4.87,2.07.09.2.33.5.45.48s.39-.29.57-.46a.34.34,0,0,0,.09-.2,1.17,1.17,0,0,1,1.45-1c.41,0,1.13.26,1.15-.42s-.74-.38-1.16-.47a3,3,0,0,0-.52,0c-.67-.06-1.3,0-1.45,1.08C4.84,4.68,4.6,4,4.3,3.36c-.09-.19-.31-.45-.49-.46a.72.72,0,0,0-.51.42C3,4.52,2.12,4.68,1,4.58c-.92-.09-1-.07-1-1A3.41,3.41,0,0,1,2.06.28a3.31,3.31,0,0,1,3.79.8l.35.37C7.9-.33,10-.47,11.46,1.05a3.35,3.35,0,0,1,.08,4.64c-1.58,1.66-3.31,3.17-5,4.72a.67.67,0,0,1-.64,0C4.21,8.88,2.53,7.29.85,5.69.82,5.67.84,5.6.83,5.48Z"/></g></g></svg>