<svg xmlns="http://www.w3.org/2000/svg" viewBox="0 0 244.02 149.53"><g id="Camada_2" data-name="Camada 2"><g id="Layer_1" data-name="Layer 1"><path d="M110.86,71h-4.6a83.27,83.27,0,0,1,14.87-21.76c-2.94-1.09-5.61-.23-8.29.35l-.21-.33c1.79-1.4,3.5-2.93,5.39-4.19a38.41,38.41,0,0,1,13.2-5.68,4.09,4.09,0,0,0,1.41-.68c1.14-.77,2.24-1.58,3.36-2.38,1.41-1,1.5-1.53,0-2.5a47.35,47.35,0,0,0-4.76-2.43c5.85-2.08,12.11-1.93,18.51-2l-10.67-8.06.1-.19,19,4.43.12-.21L122.26,0c.63.21.9.27,1.14.38,13.39,6.43,26.77,12.89,40.2,19.24,1.33.63,3,.62,4.85,1l-6.79-8.91.12-.15c.36.2.73.39,1.08.61,4.35,2.8,8.7,5.62,13.06,8.4a8.27,8.27,0,0,0,1.8.79q8.21,2.82,16.43,5.6a1.31,1.31,0,0,1,1,1.45A2.35,2.35,0,0,0,197,30.75a24.83,24.83,0,0,0,10.18,1.39,2.47,2.47,0,0,0,2.53-2.25c2,.88,3.86,1.7,5.73,2.57a1.6,1.6,0,0,1,.65.77c.83,1.8,1.69,3.6,2.4,5.46a2.93,2.93,0,0,1,0,2A20.87,20.87,0,0,1,213,48.29c-.09-1.82,1.58-3.56,0-5.18-2.43,2.72-4.73,5.28-7,7.85l-.19-.22,2.21-7.58a1.2,1.2,0,0,0,.11-.51c-.07-.36-.2-.7-.3-1a3.24,3.24,0,0,0-.77.58c-.76,1-1.46,2.09-2.4,3.45-.14-1.24-.19-2.12-.36-3a4,4,0,0,0-.58-1.07,4.64,4.64,0,0,0-1.1.82c-.88,1.2-1.7,2.46-2.75,4-.19-1.59-.34-2.78-.48-4-2.84-.36-2.87,2.7-4.79,3.54-.11-.58-.18-1.16-.32-1.73a1.53,1.53,0,0,0-2.69-.77c-.66.62-1.3,1.26-2,2-.89-2.52-.89-2.53-3.47-2.57a43.2,43.2,0,0,0-14.22,2.22c-.4.13-.77.35-1.33.6a47.42,47.42,0,0,1,5.37.06A4.15,4.15,0,0,1,178.12,47c.95,1,1.65,2.3,2.5,3.43a20.63,20.63,0,0,0,1.71,2c1.67,1.76,3.48,3,6.21,1-.3,1.1-.54,1.8-.66,2.51-.07.36,0,.94.17,1.11a1.59,1.59,0,0,0,1.29.27A23,23,0,0,0,191.93,56c-.23,1.14-.47,2.08-.59,3a1.38,1.38,0,0,0,.3,1.09,1.33,1.33,0,0,0,1.17,0c.93-.56,1.79-1.24,2.9-2-.28,1.27-.55,2.33-.74,3.4a4.28,4.28,0,0,0,.08,1.06c.4,0,.94,0,1.17-.17,1.35-1.27,2.63-2.62,3.93-3.94l.33-.37.35.14c-.58,2.07-1.17,4.14-1.79,6.34,1.86-.35,2.72-1.87,4-3.16a17.7,17.7,0,0,1-3.81,9.07,2.82,2.82,0,0,1-1.23,1,31.81,31.81,0,0,1-9.28,1.11c0-.2,0-.32.06-.36,2.31-2,2.34-2.13.2-4.29-5.48-5.56-12.29-8.52-19.85-9.89-2-.37-4.14-.34-6.2-.57a3.87,3.87,0,0,1-1.8-.67,19.39,19.39,0,0,1-6.09-7.4c-.15-.31-.28-.62-.5-1.1-.12,2.81,1.19,6.39,4,10.93-.83.61-1.68,1.22-2.5,1.86a23.32,23.32,0,0,0-7.36,9.25c-.38.91-1,.71-1.6.65a28.44,28.44,0,0,0-30.32,22.07.8.8,0,0,1-.43.57C114.47,86.13,112.69,78.64,110.86,71Zm78.41-39.36c-3-2.29-7.24-3.94-9.42-3.76.51.4,1.19.71,1.5,1.24,1.62,2.76,4,3.24,6.9,2.6A8,8,0,0,1,189.27,31.61Zm22,3.9,2.83,1.2C212.36,34.22,212.26,34.18,211.29,35.51Z"/><path d="M214.8,91.58c-1.77,8.53-3.45,16.65-5.14,24.8h-9.29c.11-.68.18-1.32.31-1.94q3.31-15.9,6.61-31.81a1.11,1.11,0,0,1,1.09-1,59.46,59.46,0,0,0,6.92-1.35c-1.72-.22-3.44-.57-5.16-.62a6.08,6.08,0,0,1-4.78-2.36,29.48,29.48,0,0,0-2.89-2.68l.23-.35c.37,0,.74-.07,1.11-.08,3.81,0,7.62,0,11.43,0a1.71,1.71,0,0,1,1.74,1c3.93,7.18,7.91,14.33,11.87,21.49.22.41.48.79.88,1.45,1.71-8.13,3.35-16,5-23.84H244c-3.48,16.68-6.94,33.25-10.48,50.2Z"/><path d="M68.28,101.3c3,6.11,6,12.07,9.06,18.23l-6.92-1.83a7,7,0,0,0-1.14-.32c-3.22-.2-4.87-2.06-6-5s-2.76-5.92-4.13-8.89a1.29,1.29,0,0,0-1.4-.9c-1.59.07-3.19.07-4.78,0-.91,0-1.29.21-1.47,1.18-.72,3.91-1.55,7.8-2.35,11.7-.07.29-.18.58-.28.89H39.61c.75-3.65,1.48-7.23,2.21-10.82Q43.93,95.24,46,84.91a1.3,1.3,0,0,1,1.23-1.24,62.36,62.36,0,0,0,6.39-1.45c-1.8-.37-3.6-.79-5.42-1.08a3.74,3.74,0,0,1-2.63-1.52c-1.38-1.83-2.9-3.55-4.51-5.49.57,0,.94-.09,1.31-.09,7.75,0,15.5,0,23.25.07a20.15,20.15,0,0,1,5.74.8c5.28,1.69,8.26,7,7.44,12.74C77.9,94.15,74.51,98.73,68.28,101.3ZM53.55,93.86h1.19c3,0,6,.14,9,0a6.3,6.3,0,0,0,5.56-7.37A4.08,4.08,0,0,0,65.37,83c-1.19-.06-2.39,0-3.58,0H55.72Z"/><path d="M0,116.41c1.22-6,2.39-11.85,3.58-17.69C4.52,94.13,5.49,89.55,6.39,85A1.52,1.52,0,0,1,7.8,83.54a57.4,57.4,0,0,0,6.29-1.34c-1.9-.36-3.79-.77-5.7-1.06A3.51,3.51,0,0,1,6,79.75c-1.5-1.85-3.08-3.64-4.81-5.67H3.57c5.93,0,11.87-.1,17.79,0a26.29,26.29,0,0,1,7.57,1.08c6.81,2.29,10.48,7.4,11.19,14.41,1.45,14.2-9.27,26.25-23.73,26.77C11,116.57,5.6,116.41,0,116.41Zm11.2-9.07c2.09,0,4,.07,6,0,8.48-.41,14.27-6.86,13.68-15.33a9,9,0,0,0-5.52-8.13c-3-1.31-6.14-.78-9.22-.83C14.45,91.2,12.84,99.2,11.2,107.34Z"/><path d="M182.67,73.82c12.6-.12,19.21,10.33,18.39,20.42a24.92,24.92,0,0,1-18.73,22.05c-8,1.82-15,.26-20.23-6.43-4-5.19-4.5-11.22-3-17.42A24.46,24.46,0,0,1,182.67,73.82Zm9,19.79c.07-7.07-5.21-11.67-12.21-10.66a14.13,14.13,0,0,0-11.79,13.7c-.08,7.92,6.49,12.86,14.1,10.58A14.15,14.15,0,0,0,191.71,93.61Z"/><path d="M157.94,79.09l-6.23,7c-2.08-1-3.92-2.34-6-2.86-5.2-1.33-9.74.29-13.39,4.12-3.47,3.64-4.84,8-3.46,13,1.85,6.61,9.35,8.81,15,6.38a1.24,1.24,0,0,0,.66-.71c.41-1.86.75-3.72,1.16-5.82-2.47.74-3.31-1.17-4.44-2.56-1.38-1.71-2.69-3.49-4.18-5.43h19.75c-.37,1.8-.74,3.55-1.09,5.3-1.2,5.89-2.43,11.78-3.57,17.68-.21,1.07-.63,1.33-1.65,1.29-1.9-.08-3.86.27-5.69-.09s-3.54.19-5.3.35c-10.47,1-20.75-6.24-20.54-18.58a25,25,0,0,1,20.65-23.9c4.84-.8,9.54-.55,13.93,1.86A50.77,50.77,0,0,1,157.94,79.09Z"/><path d="M101.76,81c-5,.21-6.42-3.77-8.94-7h4.46c3.41,0,6.82,0,10.23,0,.64,0,1,.09,1.22.84q4.92,20.43,9.9,40.84c0,.17.06.34.1.61h-9.66c-.42-1.73-.85-3.52-1.31-5.4H91.59c.29-.59.47-1,.7-1.4,1.28-2.17,2.54-4.36,3.89-6.48a2,2,0,0,1,1.42-.83c2.6-.08,5.21,0,8,0l-3.28-13.7c-.34.48-.56.77-.75,1.08q-7.86,12.93-15.68,25.86a1.84,1.84,0,0,1-1.89,1c-1.68-.07-3.36-.06-5,0-.71,0-1.23-.11-1.43-.84-.24-.88-1.29-1.48-.51-2.72C83.23,103,89.36,93,95.55,83a2.07,2.07,0,0,1,1.22-.8c1.6-.33,3.21-.55,4.82-.82Z"/><path d="M37.59,51.78c-1.16,1.43-2.33,2.85-3.48,4.29-1.72,2.14-3.46,4.26-5.12,6.45a2.4,2.4,0,0,1-2.21,1.08c-3.15-.07-3.16,0-4.4-3s-2.47-5.83-4-8.74c-.54,2.69-1.08,5.38-1.6,8.07-.64,3.21-1.28,6.42-1.86,9.63-.14.77-.43,1-1.2,1-2,0-4.06,0-6.27,0,.59-3,1.14-5.94,1.73-8.86,1.26-6.33,2.55-12.65,3.77-19a2,2,0,0,0-.49-1.46c-.94-1.14-2-2.2-3.07-3.37h3.77c2.12,0,4.25,0,6.37,0a1.36,1.36,0,0,1,1.55,1c1.9,4.71,3.86,9.4,5.8,14.09.17.41.37.79.63,1.34,2.16-2.77,4.23-5.46,6.33-8.13,1.94-2.47,3.88-4.94,5.91-7.34A2.9,2.9,0,0,1,41.61,38c2-.11,4,0,6.22,0-.81,4-1.6,7.87-2.36,11.71-1.3,6.59-2.61,13.18-3.87,19.78-.17.9-.47,1.27-1.44,1.24-2-.08-4,0-6.08,0,.64-3.26,1.24-6.37,1.86-9.48s1.27-6.19,1.9-9.28Z"/><path d="M77.8,70.66c.72-3.59,1.39-7,2.08-10.32.93-4.59,1.91-9.17,2.76-13.77A1.67,1.67,0,0,1,84.32,45a26,26,0,0,0,4.38-1c-1.54-.3-3.08-.58-4.62-.91a2.38,2.38,0,0,1-1.18-.49c-1.27-1.45-2.48-3-3.72-4.46.16-.13.22-.22.29-.22,5.66,0,11.33-.17,17,.12,7.6.39,12.8,6.48,12.42,14.09-.47,9.28-6.7,16.57-15.84,18.16a57.23,57.23,0,0,1-8.6.34C82.31,70.7,80.18,70.66,77.8,70.66Zm8.61-7.08h4.28a10.58,10.58,0,0,0,10.73-8.49c1-4.15-.76-8.2-4.18-9.63-2.27-.94-4.66-.7-7.06-.65C88.92,51.08,87.69,57.23,86.41,63.58Z"/><path d="M63.51,43.08c-3.68.21-4.58-2.84-6.41-5.09H68.82l7.85,32.66c-2.49,0-4.77,0-7,0-.26,0-.64-.52-.73-.85-.3-1.1-.49-2.24-.74-3.47H55.65c1.37-2.31,2.58-4.4,3.86-6.45.14-.23.69-.3,1.06-.3,1.9,0,3.8,0,5.91,0C65.69,56,64.93,52.67,64.09,49c-.62,1-1.07,1.62-1.49,2.3-3.76,6.15-7.53,12.29-11.25,18.47a1.75,1.75,0,0,1-1.79,1c-2.15-.07-4.32,0-6.73,0,.39-.71.65-1.24,1-1.75,5-8,10-16.07,15-24.08a2.58,2.58,0,0,1,1.45-.9c1-.26,2.06-.36,3.1-.53Z"/><path d="M150,134.19c4,3,2.31,8.83-.87,11.21a10.7,10.7,0,0,1-6.33,2.07c-3.81.09-7.61,0-11.42,0a6.46,6.46,0,0,1-.88-.13c1-4.55,2-9,3-13.5.35-1.6.73-3.19,1-4.8a1.27,1.27,0,0,1,1.29-1.2,17.35,17.35,0,0,0,3.21-.7,7.59,7.59,0,0,1-6.91-4.67c.28,0,.6-.09.92-.1l13.15,0a16.28,16.28,0,0,1,1.85.14c2.55.29,4.49,1.46,5.24,4a6.36,6.36,0,0,1-2.05,6.72A14.62,14.62,0,0,1,150,134.19Zm-12.76,8c2.29,0,4.41.07,6.51,0a4.07,4.07,0,0,0,2-.86,2.53,2.53,0,0,0,.83-3,2.19,2.19,0,0,0-2.33-1.38c-1.68,0-3.36-.07-5,0-.32,0-.87.22-.92.45C138,138.9,137.65,140.49,137.28,142.2ZM139.51,132c2,0,3.79.08,5.58-.05a3.12,3.12,0,0,0,2.07-.93,3,3,0,0,0,.51-2.27,2.07,2.07,0,0,0-1.55-1.12c-1.88-.14-3.77,0-5.75,0C140.09,129,139.83,130.4,139.51,132Z"/><path d="M124,138.38l5.11,11.15c-2.46-.75-4.69-1.4-6.89-2.13-.3-.1-.54-.55-.7-.9-1-2.09-1.9-4.18-2.8-6.29a1.36,1.36,0,0,0-1.46-1c-3.3,0-3.3,0-4,3.21-.36,1.68-.73,3.35-1.12,5.1h-5.59c.58-2.68,1.14-5.25,1.71-7.81.77-3.5,1.58-7,2.32-10.48.18-.84.46-1.32,1.42-1.39a15.66,15.66,0,0,0,3.23-.7c-3.18-.27-5.66-1.56-7-4.67.21,0,.45-.07.69-.07,4.52,0,9,0,13.55,0a12.22,12.22,0,0,1,2.76.3c4.27,1,6.24,5.25,4.55,9.78a9.81,9.81,0,0,1-4.62,5.28Zm-7.5-10.72c-.44,2.11-.87,4.15-1.31,6.31,2.07,0,3.92.07,5.77,0a3.8,3.8,0,0,0,3.64-3.13,2.47,2.47,0,0,0-2.23-3.14C120.43,127.57,118.49,127.66,116.49,127.66Z"/><path d="M180.3,133.21c-.2,9.31-9.29,16.56-18,14.36-5-1.27-8.13-5.73-7.88-11.31a15.35,15.35,0,0,1,15-14.21A10.49,10.49,0,0,1,180.3,133.21Zm-5.72.53a6,6,0,0,0-7.28-6.15,9,9,0,0,0-7.18,8.95,6,6,0,0,0,6.88,5.89A8.7,8.7,0,0,0,174.58,133.74Z"/><path d="M107.76,122.38c-1.46,5.9-2.62,11.67-4.36,17.26-1.51,4.82-5.17,7.57-10.24,8.29-6.46.92-11.07-3.76-9.87-10.17.92-4.87,2.06-9.69,3.15-14.52a1.22,1.22,0,0,1,.79-.79c1.58-.08,3.17,0,5,0-.57,2.64-1.11,5.17-1.66,7.69s-1.11,4.92-1.58,7.39c-.7,3.7,2.1,6,5.65,4.77a6.18,6.18,0,0,0,4-4.75q1.38-5.81,2.64-11.64c.76-3.46.72-3.47,4.28-3.49Z"/><path d="M63.11,122.4h2.27c4.83,0,9.65,0,14.48-.08a4,4,0,0,0,2-.71c1.24-.84,2.38-1.81,3.86-2.94-.75,3.16-1.42,6-2.11,8.93H75.51c-.73,3.26-1.43,6.4-2.13,9.55s-1.38,6.12-2,9.19c-.17.84-.48,1.21-1.38,1.16-1.41-.07-2.82,0-4.5,0,.74-3.4,1.44-6.66,2.16-9.91s1.47-6.45,2.2-9.65c-3.92-1.49-6,1.53-8.8,3.63C61.77,128.32,62.42,125.43,63.11,122.4Z"/><path d="M40.91,141.12a15.61,15.61,0,0,1,.41-2.06,1.14,1.14,0,0,1,.78-.65c4.63,0,9.26,0,14,0a14.55,14.55,0,0,1-.43,2.13,1.09,1.09,0,0,1-.84.57C50.28,141.13,45.69,141.12,40.91,141.12Z"/><path d="M182.19,141.12c-.08-.22-.11-.27-.1-.3.66-2.94-.1-2.42,2.9-2.43,3.54,0,7.08,0,10.62,0h1.68a14,14,0,0,1-.45,2.13,1.1,1.1,0,0,1-.85.57C191.4,141.14,186.8,141.12,182.19,141.12Z"/><path d="M40.24,143.91H55l-.54,2.57H39.65Z"/><path d="M183.23,135.55l.56-2.55H198.5c-.19.87-.36,1.68-.55,2.55Z"/><path d="M180.89,146.51c.35-2.65.35-2.65,2.82-2.65l10.88,0h1.55l-.57,2.67Z"/><path d="M184.49,130.25c.55-3.21,0-2.71,2.95-2.73,3.45,0,6.9,0,10.36,0h1.85a19.35,19.35,0,0,1-.4,2.19,1,1,0,0,1-.73.54C193.88,130.26,189.23,130.25,184.49,130.25Z"/><path d="M200.92,122.1l-.6,2.56H185.69l.47-2.56Z"/><path d="M58.55,127.62c-.16.78-.25,1.47-.45,2.13a.89.89,0,0,1-.66.48c-4.67,0-9.34,0-14.14,0l.58-2.63Z"/><path d="M57.39,133l-.59,2.58H42.26a1.58,1.58,0,0,1,0-.37c.34-2.22.34-2.21,2.58-2.21Z"/><path d="M44.53,124.61l.53-2.5a3.59,3.59,0,0,1,.53-.08H59.66l-.47,2.59Z"/><path d="M221.17,61.24c-3,1.6-6,1.89-9,.13a13.75,13.75,0,0,1-2.24-1.65c-3.94-3.56-8.71-4.86-13.86-5.16-.48,0-1,0-1.65,0,1.87-.75,6.32-.77,9.1-.17a12.56,12.56,0,0,1,6.45,3.17C213.06,60.7,216.58,62.54,221.17,61.24Z"/></g></g></svg>