<svg xmlns="http://www.w3.org/2000/svg" viewBox="0 0 11.27 11.82"><defs><style>.cls-1{fill:#fea621;}</style></defs><g id="Layer_2" data-name="Layer 2"><g id="Layer_1-2" data-name="Layer 1"><path class="cls-1" d="M6,8.9l.07,0a1.39,1.39,0,0,1,.63-.15.35.35,0,0,1,.37.35.36.36,0,0,1-.36.37.7.7,0,0,0-.71.72v1.5a.08.08,0,0,0,.06.09,1,1,0,0,0,1.32-.52,1.08,1.08,0,0,0,.09-.61.36.36,0,0,1,.29-.44.35.35,0,0,1,.41.33c0,.12,0,.25,0,.37A1.46,1.46,0,0,0,9.6,9.27h0a2,2,0,0,1-1.64-.65A.35.35,0,0,1,8.06,8a.88.88,0,0,0,.59-1.09.37.37,0,0,1,.25-.46.35.35,0,0,1,.44.27,1.56,1.56,0,0,1-.26,1.4,3.45,3.45,0,0,1-.26.28l0,0a1.36,1.36,0,0,0,.74.11A1.31,1.31,0,0,0,10.7,7a1.27,1.27,0,0,0-.64-.93.35.35,0,0,1-.14-.49.37.37,0,0,1,.5-.13,2.83,2.83,0,0,1,.28.2l.22.19a1.71,1.71,0,0,0,.3-1.43,1.78,1.78,0,0,0-3.5.08c0,.21,0,.42,0,.63a2.46,2.46,0,0,1-.46,1.15.36.36,0,0,1-.54,0,.38.38,0,0,1,0-.49A1.72,1.72,0,0,0,7,5c0-.21,0-.43.06-.64a2.23,2.23,0,0,1,.3-.8l-.1-.06a1.39,1.39,0,0,1-.7-1.24.34.34,0,0,1,.3-.34.36.36,0,0,1,.4.25c0,.05,0,.11,0,.16a.68.68,0,0,0,.5.62.13.13,0,0,0,.12,0,2.48,2.48,0,0,1,2.4-.45l.36.14A1.75,1.75,0,0,0,8.94.91c0,.22.05.43.06.65a.34.34,0,0,1-.34.35.35.35,0,0,1-.37-.33,1.69,1.69,0,0,0,0-.23A1.55,1.55,0,0,0,6.08.15.12.12,0,0,0,6,.28V8.9Z"/><path class="cls-1" d="M4,6.29a2.4,2.4,0,0,1-.45-1.15c0-.2,0-.41,0-.61A1.79,1.79,0,1,0,0,5.18a1.66,1.66,0,0,0,.32.7l.07-.06c.14-.11.28-.23.43-.33a.33.33,0,0,1,.38,0,.35.35,0,0,1,.15.35.36.36,0,0,1-.2.28A1.26,1.26,0,0,0,.56,7.42a1.24,1.24,0,0,0,.81,1.05,1.29,1.29,0,0,0,1.07,0v0l-.05-.05a1.56,1.56,0,0,1-.46-1.6.36.36,0,1,1,.69.17A.88.88,0,0,0,3.21,8a.36.36,0,0,1,.16.58,1.91,1.91,0,0,1-1.18.65,4.73,4.73,0,0,1-.53,0,1.45,1.45,0,0,0,1.41,1.59c0-.09,0-.18,0-.27l0-.17a.36.36,0,0,1,.43-.26.38.38,0,0,1,.27.45,1,1,0,0,0,.36,1,1,1,0,0,0,1,.17c.06,0,.08,0,.08-.12,0-.49,0-1,0-1.47a.71.71,0,0,0,0-.2.71.71,0,0,0-.67-.53A.37.37,0,0,1,4.21,9a.36.36,0,0,1,.41-.27,1.4,1.4,0,0,1,.65.19v-.1q0-4.28,0-8.53A.13.13,0,0,0,5.2.15a1.57,1.57,0,0,0-2,.65,1.65,1.65,0,0,0-.2.78.35.35,0,0,1-.37.33.34.34,0,0,1-.34-.34,2.44,2.44,0,0,1,0-.27c0-.13,0-.26.07-.39A1.74,1.74,0,0,0,.64,2.59h0l0,0a2.47,2.47,0,0,1,2.62.28c.15.11.17.12.34,0l.16-.12A.81.81,0,0,0,4,2.21a.34.34,0,0,1,.37-.32.35.35,0,0,1,.34.36,1.44,1.44,0,0,1-.31.89,1.57,1.57,0,0,1-.49.4l0,.07a2.46,2.46,0,0,1,.32,1.18,1.8,1.8,0,0,0,.34,1.08.36.36,0,0,1-.08.51A.36.36,0,0,1,4,6.29Z"/></g></g></svg>